<svg width="33" height="35" viewBox="0 0 33 35" fill="none" xmlns="http://www.w3.org/2000/svg">
<path d="M29.4432 0.416626H12.3923C10.4944 0.416626 8.95858 1.95242 8.95858 3.85038V13.4803L0.925995 21.4103C0.685316 21.6484 0.52078 21.9525 0.453267 22.2842C0.385755 22.616 0.418309 22.9602 0.5468 23.2734C0.67529 23.5866 0.893923 23.8545 1.17495 24.0432C1.45598 24.2319 1.78674 24.3329 2.12524 24.3333V32.875C2.12524 33.328 2.30523 33.7626 2.6256 34.0829C2.94598 34.4033 3.3805 34.5833 3.83358 34.5833H31.1669C31.62 34.5833 32.0545 34.4033 32.3749 34.0829C32.6953 33.7626 32.8752 33.328 32.8752 32.875V3.84867C32.8752 1.95242 31.3412 0.416626 29.4432 0.416626ZM15.6587 22.8146V31.1666H5.54191V21.6546L10.6447 16.6168L15.6587 21.7469V22.8146ZM19.2086 12.375H15.7919V8.95829H19.2086V12.375ZM26.0419 26.0416H22.6252V22.625H26.0419V26.0416ZM26.0419 19.2083H22.6252V15.7916H26.0419V19.2083ZM26.0419 12.375H22.6252V8.95829H26.0419V12.375Z" fill="#286C97"/>
</svg>
